<svg width="93" height="85" viewBox="0 0 93 85" fill="none" xmlns="http://www.w3.org/2000/svg">
<rect width="93" height="85" rx="12" fill="#3045C5"/>
<path d="M15.636 50.184C14.302 50.184 13.1137 49.9157 12.071 49.379C11.0283 48.827 10.208 48.068 9.61 47.102C9.02733 46.136 8.736 45.0397 8.736 43.813C8.736 42.571 9.02733 41.4747 9.61 40.524C10.208 39.558 11.0283 38.8067 12.071 38.27C13.1137 37.718 14.302 37.442 15.636 37.442C16.9393 37.442 18.074 37.718 19.04 38.27C20.006 38.8067 20.719 39.581 21.179 40.593L18.396 42.088C18.074 41.5053 17.6677 41.076 17.177 40.8C16.7017 40.524 16.1803 40.386 15.613 40.386C14.9997 40.386 14.4477 40.524 13.957 40.8C13.4663 41.076 13.0753 41.467 12.784 41.973C12.508 42.479 12.37 43.0923 12.37 43.813C12.37 44.5337 12.508 45.147 12.784 45.653C13.0753 46.159 13.4663 46.55 13.957 46.826C14.4477 47.102 14.9997 47.24 15.613 47.24C16.1803 47.24 16.7017 47.1097 17.177 46.849C17.6677 46.573 18.074 46.136 18.396 45.538L21.179 47.056C20.719 48.0527 20.006 48.827 19.04 49.379C18.074 49.9157 16.9393 50.184 15.636 50.184ZM23.1775 50V37.626H26.7655V50H23.1775ZM24.9715 35.901C24.3122 35.901 23.7755 35.7093 23.3615 35.326C22.9475 34.9427 22.7405 34.4673 22.7405 33.9C22.7405 33.3327 22.9475 32.8573 23.3615 32.474C23.7755 32.0907 24.3122 31.899 24.9715 31.899C25.6308 31.899 26.1675 32.083 26.5815 32.451C26.9955 32.8037 27.2025 33.2637 27.2025 33.831C27.2025 34.429 26.9955 34.9273 26.5815 35.326C26.1828 35.7093 25.6462 35.901 24.9715 35.901ZM37.4095 50.184C36.3668 50.184 35.4545 49.954 34.6725 49.494C33.8905 49.034 33.2771 48.3363 32.8325 47.401C32.4031 46.4503 32.1885 45.2543 32.1885 43.813C32.1885 42.3563 32.3955 41.1603 32.8095 40.225C33.2235 39.2897 33.8215 38.592 34.6035 38.132C35.3855 37.672 36.3208 37.442 37.4095 37.442C38.5748 37.442 39.6175 37.7103 40.5375 38.247C41.4728 38.7683 42.2088 39.5043 42.7455 40.455C43.2975 41.4057 43.5735 42.525 43.5735 43.813C43.5735 45.1163 43.2975 46.2433 42.7455 47.194C42.2088 48.1447 41.4728 48.8807 40.5375 49.402C39.6175 49.9233 38.5748 50.184 37.4095 50.184ZM30.0955 54.462V37.626H33.5225V40.156L33.4535 43.836L33.6835 47.493V54.462H30.0955ZM36.7885 47.24C37.3865 47.24 37.9155 47.102 38.3755 46.826C38.8508 46.55 39.2265 46.159 39.5025 45.653C39.7938 45.1317 39.9395 44.5183 39.9395 43.813C39.9395 43.0923 39.7938 42.479 39.5025 41.973C39.2265 41.467 38.8508 41.076 38.3755 40.8C37.9155 40.524 37.3865 40.386 36.7885 40.386C36.1905 40.386 35.6538 40.524 35.1785 40.8C34.7031 41.076 34.3275 41.467 34.0515 41.973C33.7755 42.479 33.6375 43.0923 33.6375 43.813C33.6375 44.5183 33.7755 45.1317 34.0515 45.653C34.3275 46.159 34.7031 46.55 35.1785 46.826C35.6538 47.102 36.1905 47.24 36.7885 47.24ZM53.4963 37.442C54.4777 37.442 55.3517 37.6413 56.1183 38.04C56.9003 38.4233 57.5137 39.0213 57.9583 39.834C58.403 40.6313 58.6253 41.6587 58.6253 42.916V50H55.0373V43.468C55.0373 42.4713 54.815 41.7353 54.3703 41.26C53.941 40.7847 53.3277 40.547 52.5303 40.547C51.963 40.547 51.4493 40.6697 50.9893 40.915C50.5447 41.145 50.192 41.5053 49.9313 41.996C49.686 42.4867 49.5633 43.1153 49.5633 43.882V50H45.9753V32.934H49.5633V41.053L48.7583 40.018C49.203 39.19 49.8393 38.5537 50.6673 38.109C51.4953 37.6643 52.4383 37.442 53.4963 37.442ZM68.1085 50.184C66.6979 50.184 65.4559 49.908 64.3825 49.356C63.3245 48.804 62.5042 48.0527 61.9215 47.102C61.3389 46.136 61.0475 45.0397 61.0475 43.813C61.0475 42.571 61.3312 41.4747 61.8985 40.524C62.4812 39.558 63.2709 38.8067 64.2675 38.27C65.2642 37.718 66.3912 37.442 67.6485 37.442C68.8599 37.442 69.9485 37.7027 70.9145 38.224C71.8959 38.73 72.6702 39.466 73.2375 40.432C73.8049 41.3827 74.0885 42.525 74.0885 43.859C74.0885 43.997 74.0809 44.158 74.0655 44.342C74.0502 44.5107 74.0349 44.6717 74.0195 44.825H63.9685V42.732H72.1335L70.7535 43.353C70.7535 42.709 70.6232 42.1493 70.3625 41.674C70.1019 41.1987 69.7415 40.8307 69.2815 40.57C68.8215 40.294 68.2849 40.156 67.6715 40.156C67.0582 40.156 66.5139 40.294 66.0385 40.57C65.5785 40.8307 65.2182 41.2063 64.9575 41.697C64.6969 42.1723 64.5665 42.7397 64.5665 43.399V43.951C64.5665 44.6257 64.7122 45.2237 65.0035 45.745C65.3102 46.251 65.7319 46.642 66.2685 46.918C66.8205 47.1787 67.4645 47.309 68.2005 47.309C68.8599 47.309 69.4349 47.2093 69.9255 47.01C70.4315 46.8107 70.8915 46.5117 71.3055 46.113L73.2145 48.183C72.6472 48.827 71.9342 49.3253 71.0755 49.678C70.2169 50.0153 69.2279 50.184 68.1085 50.184ZM76.4773 50V37.626H79.9043V41.122L79.4213 40.11C79.7893 39.236 80.3796 38.5767 81.1923 38.132C82.005 37.672 82.994 37.442 84.1593 37.442V40.754C84.006 40.7387 83.868 40.731 83.7453 40.731C83.6226 40.7157 83.4923 40.708 83.3543 40.708C82.373 40.708 81.5756 40.9917 80.9623 41.559C80.3643 42.111 80.0653 42.9773 80.0653 44.158V50H76.4773Z" fill="white"/>
</svg>
