<svg width="18" height="18" viewBox="0 0 18 18" fill="none" xmlns="http://www.w3.org/2000/svg">
<path d="M7.03125 9C7.49724 9 7.875 8.62224 7.875 8.15625C7.875 7.69026 7.49724 7.3125 7.03125 7.3125C6.56526 7.3125 6.1875 7.69026 6.1875 8.15625C6.1875 8.62224 6.56526 9 7.03125 9Z" fill="#777777"/>
<path d="M10.9688 9C11.4347 9 11.8125 8.62224 11.8125 8.15625C11.8125 7.69026 11.4347 7.3125 10.9688 7.3125C10.5028 7.3125 10.125 7.69026 10.125 8.15625C10.125 8.62224 10.5028 9 10.9688 9Z" fill="#777777"/>
<path d="M15.1875 15.1875L13.1273 13.5L11.0602 15.1875L9 13.5L6.93984 15.1875L4.87266 13.5L2.8125 15.1875V8.4375C2.8125 6.79647 3.4644 5.22266 4.62478 4.06228C5.78516 2.9019 7.35897 2.25 9 2.25C10.641 2.25 12.2148 2.9019 13.3752 4.06228C14.5356 5.22266 15.1875 6.79647 15.1875 8.4375V15.1875Z" stroke="#777777" stroke-width="2" stroke-linecap="round" stroke-linejoin="round"/>
</svg>
